<svg xmlns="http://www.w3.org/2000/svg" viewBox="0 0 512 512">
  <rect width="512" height="512" rx="108" ry="108" fill="#E8FF59"/>
  <!-- S character as path (serif style) -->
  <path d="M310.5 149.5c-14-12.5-35.5-22-62.5-22-38 0-62 18-62 47 0 30 22 42 58 52l24 7c48 13 82 34 82 82 0 54-42 88-102 88-42 0-76-14-98-40l30-32c18 20 42 32 70 32 38 0 62-20 62-49 0-30-20-42-58-53l-24-7c-46-13-80-32-80-80 0-52 42-86 100-86 36 0 66 12 86 32z" fill="#1A1A20"/>
  <!-- Dot -->
  <circle cx="370" cy="128" r="26" fill="#1A1A20"/>
</svg>
